<svg width="230" height="200" viewBox="0 0 230 200" fill="none" xmlns="http://www.w3.org/2000/svg">
<path fill-rule="evenodd" clip-rule="evenodd" d="M89.5693 175.744C89.5693 175.744 35.5078 163.563 35.5078 115.387C35.5078 67.2125 76.6226 27.6519 103.719 23.058C130.815 18.4641 137.799 31.0669 146.509 53.8375C155.22 76.6081 195.228 70.5592 202.663 109.49C206.152 127.752 193.291 159.011 146.509 175.744C133.901 180.254 89.5693 175.744 89.5693 175.744Z" fill="#F6FBFF"/>
<path d="M38.2478 177.881H147.06" stroke="#CDDAE4" stroke-width="2" stroke-linecap="round"/>
<path d="M154.087 177.881H176.95" stroke="#CDDAE4" stroke-width="2" stroke-linecap="round"/>
<path d="M183.046 177.881H190.668" stroke="#CDDAE4" stroke-width="2" stroke-linecap="round"/>
<path d="M28.7409 79.9639H23.1199C22.5676 79.9639 22.1199 80.4116 22.1199 80.9639V86.5659C22.1199 87.1182 22.5676 87.5659 23.1199 87.5659H28.7409C29.2932 87.5659 29.7409 87.1182 29.7409 86.5659V80.9639C29.7409 80.4116 29.2932 79.9639 28.7409 79.9639Z" stroke="#FFAB00"/>
<path fill-rule="evenodd" clip-rule="evenodd" d="M77.0469 22.838C77.4373 22.4486 78.0691 22.4486 78.4594 22.838L82.4323 26.801C82.824 27.1917 82.824 27.8262 82.4323 28.217L78.4594 32.18C78.0691 32.5693 77.4373 32.5693 77.0469 32.18L73.0741 28.217C72.6824 27.8262 72.6824 27.1917 73.0741 26.801L77.0469 22.838Z" stroke="#DE2E21"/>
<path fill-rule="evenodd" clip-rule="evenodd" d="M141.77 43.4731C143.874 43.4731 145.58 41.7714 145.58 39.6721C145.58 37.5728 143.874 35.8711 141.77 35.8711C139.665 35.8711 137.959 37.5728 137.959 39.6721C137.959 41.7714 139.665 43.4731 141.77 43.4731Z" stroke="#6A90AD"/>
<path d="M199.425 77.8926L207.574 82.0342" stroke="#7FA8E5" stroke-linecap="round"/>
<path d="M205.575 75.8994L201.424 84.0276" stroke="#7FA8E5" stroke-linecap="round"/>
<path d="M82.3411 52.9561C79.8558 52.9561 77.8411 54.9708 77.8411 57.4561V154.525C77.8411 157.01 79.8558 159.025 82.3411 159.025H148.074C150.559 159.025 152.574 157.01 152.574 154.525V57.4561C152.574 54.9708 150.559 52.9561 148.074 52.9561H82.3411Z" fill="white" stroke="#9BB5C8"/>
<path d="M146.544 53.4561H148.074C150.283 53.4561 152.074 55.2469 152.074 57.4561V154.525C152.074 156.734 150.283 158.525 148.074 158.525H146.544V53.4561Z" fill="#E6ECF1"/>
<path fill-rule="evenodd" clip-rule="evenodd" d="M92.4108 102.233C89.804 102.233 87.7319 104.305 87.7319 106.912C87.7319 109.519 89.804 111.591 92.4108 111.591C95.0176 111.591 97.0897 109.519 97.0897 106.912C97.0897 104.305 95.0176 102.233 92.4108 102.233Z" fill="#CDDAE4"/>
<path d="M92.4108 101.733C89.5279 101.733 87.2319 104.029 87.2319 106.912H88.2319C88.2319 104.582 90.0801 102.733 92.4108 102.733V101.733ZM87.2319 106.912C87.2319 109.795 89.5279 112.091 92.4108 112.091V111.091C90.0801 111.091 88.2319 109.243 88.2319 106.912H87.2319ZM92.4108 112.091C95.2938 112.091 97.5897 109.795 97.5897 106.912H96.5897C96.5897 109.243 94.7415 111.091 92.4108 111.091V112.091ZM97.5897 106.912C97.5897 104.029 95.2938 101.733 92.4108 101.733V102.733C94.7415 102.733 96.5897 104.582 96.5897 106.912H97.5897Z" fill="#9BB5C8"/>
<path fill-rule="evenodd" clip-rule="evenodd" d="M92.4108 66.7119C89.804 66.7119 87.7319 68.784 87.7319 71.3908C87.7319 73.9976 89.804 76.0697 92.4108 76.0697C95.0176 76.0697 97.0897 73.9976 97.0897 71.3908C97.0897 68.784 95.0176 66.7119 92.4108 66.7119Z" fill="#CDDAE4"/>
<path d="M92.4108 66.2119C89.5279 66.2119 87.2319 68.5078 87.2319 71.3908H88.2319C88.2319 69.0601 90.0801 67.2119 92.4108 67.2119V66.2119ZM87.2319 71.3908C87.2319 74.2737 89.5279 76.5697 92.4108 76.5697V75.5697C90.0801 75.5697 88.2319 73.7214 88.2319 71.3908H87.2319ZM92.4108 76.5697C95.2938 76.5697 97.5897 74.2737 97.5897 71.3908H96.5897C96.5897 73.7214 94.7415 75.5697 92.4108 75.5697V76.5697ZM97.5897 71.3908C97.5897 68.5078 95.2938 66.2119 92.4108 66.2119V67.2119C94.7415 67.2119 96.5897 69.0601 96.5897 71.3908H97.5897Z" fill="#9BB5C8"/>
<path fill-rule="evenodd" clip-rule="evenodd" d="M92.4108 137.754C89.804 137.754 87.7319 139.826 87.7319 142.433C87.7319 145.04 89.804 147.112 92.4108 147.112C95.0176 147.112 97.0897 145.04 97.0897 142.433C97.0897 139.826 95.0176 137.754 92.4108 137.754Z" fill="#CDDAE4"/>
<path d="M92.4108 137.254C89.5279 137.254 87.2319 139.55 87.2319 142.433H88.2319C88.2319 140.102 90.0801 138.254 92.4108 138.254V137.254ZM87.2319 142.433C87.2319 145.316 89.5279 147.612 92.4108 147.612V146.612C90.0801 146.612 88.2319 144.763 88.2319 142.433H87.2319ZM92.4108 147.612C95.2938 147.612 97.5897 145.316 97.5897 142.433H96.5897C96.5897 144.763 94.7415 146.612 92.4108 146.612V147.612ZM97.5897 142.433C97.5897 139.55 95.2938 137.254 92.4108 137.254V138.254C94.7415 138.254 96.5897 140.102 96.5897 142.433H97.5897Z" fill="#9BB5C8"/>
<rect x="77.4194" y="88.4795" width="75.576" height="0.921669" fill="#9BB5C8"/>
<rect x="77.4194" y="124.424" width="75.576" height="0.921661" fill="#9BB5C8"/>
</svg>
