<svg width="474" height="466" viewBox="0 0 474 466" fill="none" xmlns="http://www.w3.org/2000/svg">
<path d="M155.331 434.5L155.07 434.926L155.331 434.5ZM72.9938 211L73.4428 211.22L72.9938 211ZM473.496 337.562C473.389 338.422 473.273 339.277 473.148 340.128L472.159 339.983C472.282 339.139 472.397 338.291 472.504 337.438L473.496 337.562ZM471.251 350.154C470.859 351.832 470.433 353.491 469.974 355.131L469.011 354.862C469.466 353.235 469.888 351.59 470.277 349.927L471.251 350.154ZM466.793 364.839C466.19 366.436 465.555 368.014 464.888 369.573L463.968 369.179C464.63 367.634 465.26 366.07 465.857 364.486L466.793 364.839ZM460.453 378.786C459.647 380.29 458.81 381.773 457.942 383.236L457.082 382.726C457.942 381.275 458.773 379.804 459.572 378.314L460.453 378.786ZM452.36 391.798C451.371 393.185 450.354 394.551 449.308 395.898L448.518 395.284C449.556 393.948 450.565 392.593 451.546 391.218L452.36 391.798ZM442.729 403.713C441.581 404.974 440.408 406.214 439.21 407.435L438.496 406.735C439.686 405.523 440.85 404.291 441.989 403.04L442.729 403.713ZM431.798 414.463C430.528 415.585 429.235 416.688 427.92 417.772L427.284 417.001C428.59 415.923 429.874 414.828 431.136 413.713L431.798 414.463ZM419.832 424.015C418.457 425.008 417.063 425.984 415.649 426.941L415.088 426.113C416.494 425.161 417.88 424.192 419.247 423.204L419.832 424.015ZM407.033 432.417C405.57 433.289 404.09 434.144 402.595 434.982L402.106 434.109C403.594 433.276 405.066 432.426 406.521 431.558L407.033 432.417ZM393.568 439.729C392.049 440.479 390.515 441.213 388.969 441.93L388.548 441.022C390.087 440.309 391.613 439.579 393.125 438.833L393.568 439.729ZM379.601 446.004C378.033 446.643 376.454 447.266 374.864 447.872L374.507 446.938C376.09 446.334 377.663 445.714 379.223 445.078L379.601 446.004ZM365.25 451.303C363.638 451.84 362.018 452.361 360.388 452.866L360.092 451.911C361.715 451.408 363.329 450.889 364.934 450.354L365.25 451.303ZM350.586 455.69C348.941 456.129 347.289 456.552 345.63 456.961L345.392 455.989C347.044 455.583 348.69 455.161 350.328 454.724L350.586 455.69ZM335.686 459.209C334.023 459.552 332.354 459.881 330.68 460.194L330.496 459.212C332.164 458.899 333.827 458.572 335.484 458.229L335.686 459.209ZM320.616 461.893C318.938 462.146 317.255 462.384 315.57 462.607L315.439 461.615C317.118 461.393 318.795 461.156 320.467 460.904L320.616 461.893ZM305.432 463.77C303.741 463.934 302.047 464.084 300.352 464.219L300.272 463.222C301.962 463.087 303.65 462.938 305.336 462.774L305.432 463.77ZM290.168 464.856C288.469 464.933 286.77 464.995 285.072 465.043L285.043 464.044C286.736 463.996 288.43 463.934 290.123 463.857L290.168 464.856ZM274.868 465.157C273.168 465.146 271.47 465.122 269.773 465.082L269.796 464.082C271.487 464.122 273.18 464.146 274.874 464.157L274.868 465.157ZM259.575 464.668C257.875 464.569 256.177 464.455 254.483 464.327L254.559 463.33C256.247 463.458 257.939 463.571 259.633 463.669L259.575 464.668ZM244.334 463.374C242.636 463.184 240.943 462.979 239.256 462.758L239.385 461.766C241.066 461.986 242.753 462.191 244.445 462.381L244.334 463.374ZM229.168 461.246C227.486 460.961 225.811 460.661 224.143 460.345L224.329 459.363C225.99 459.677 227.659 459.977 229.334 460.26L229.168 461.246ZM214.153 458.246C212.496 457.862 210.848 457.463 209.21 457.047L209.455 456.078C211.087 456.492 212.728 456.889 214.378 457.271L214.153 458.246ZM199.363 454.322C197.728 453.83 196.105 453.322 194.494 452.797L194.804 451.846C196.408 452.369 198.024 452.875 199.651 453.365L199.363 454.322ZM184.877 449.407C183.272 448.797 181.683 448.17 180.108 447.525L180.488 446.599C182.054 447.241 183.636 447.866 185.232 448.472L184.877 449.407ZM170.768 443.402C169.227 442.67 167.703 441.921 166.198 441.153L166.653 440.262C168.149 441.026 169.664 441.771 171.197 442.498L170.768 443.402ZM157.241 436.232C156.512 435.802 155.788 435.367 155.07 434.926L155.592 434.074C156.306 434.511 157.025 434.944 157.749 435.371L157.241 436.232ZM155.07 434.926C154.353 434.487 153.637 434.041 152.921 433.587L153.457 432.742C154.168 433.194 154.88 433.638 155.592 434.074L155.07 434.926ZM144.476 427.858C143.109 426.871 141.746 425.857 140.388 424.817L140.996 424.023C142.346 425.057 143.702 426.065 145.061 427.047L144.476 427.858ZM132.453 418.401C131.168 417.305 129.89 416.188 128.62 415.048L129.288 414.304C130.552 415.438 131.823 416.55 133.102 417.64L132.453 418.401ZM121.194 408.054C119.991 406.866 118.797 405.658 117.613 404.432L118.333 403.737C119.511 404.958 120.7 406.16 121.897 407.343L121.194 408.054ZM110.7 396.936C109.58 395.666 108.472 394.378 107.375 393.075L108.14 392.431C109.232 393.729 110.336 395.01 111.45 396.275L110.7 396.936ZM100.986 385.131C99.9532 383.786 98.9329 382.426 97.9259 381.053L98.7324 380.461C99.7349 381.829 100.751 383.182 101.779 384.522L100.986 385.131ZM92.0851 372.699C91.1437 371.287 90.2169 369.861 89.3054 368.424L90.1499 367.888C91.0574 369.319 91.98 370.738 92.9172 372.145L92.0851 372.699ZM84.0455 359.693C83.2027 358.218 82.3765 356.733 81.5674 355.237L82.4471 354.761C83.2523 356.25 84.0748 357.729 84.9138 359.197L84.0455 359.693ZM76.9334 346.157C76.1977 344.625 75.4806 343.085 74.7827 341.535L75.6945 341.124C76.389 342.666 77.1026 344.2 77.8348 345.724L76.9334 346.157ZM70.8317 332.136C70.2131 330.552 69.6153 328.961 69.0388 327.362L69.9795 327.023C70.5529 328.613 71.1477 330.196 71.7632 331.772L70.8317 332.136ZM65.8399 317.68C65.3508 316.051 64.8846 314.416 64.442 312.775L65.4075 312.514C65.8476 314.146 66.3112 315.772 66.7977 317.393L65.8399 317.68ZM62.0738 302.855C61.728 301.189 61.4073 299.519 61.1126 297.845L62.0975 297.672C62.3904 299.336 62.7091 300.996 63.0529 302.651L62.0738 302.855ZM59.6603 287.748C59.472 286.058 59.3112 284.365 59.1786 282.67L60.1756 282.592C60.3073 284.276 60.4671 285.958 60.6541 287.638L59.6603 287.748ZM58.7269 272.478C58.7099 270.777 58.7224 269.076 58.7651 267.374L59.7648 267.399C59.7224 269.089 59.7099 270.779 59.7268 272.468L58.7269 272.478ZM59.3871 257.191C59.5522 255.499 59.7485 253.808 59.9769 252.117L60.9679 252.251C60.7412 253.929 60.5462 255.608 60.3823 257.288L59.3871 257.191ZM61.7206 242.064C62.0732 240.406 62.458 238.749 62.8759 237.095L63.8455 237.34C63.4307 238.982 63.0487 240.626 62.6988 242.272L61.7206 242.064ZM65.7537 227.295C66.2911 225.694 66.8612 224.096 67.4645 222.502L68.3997 222.855C67.8009 224.438 67.2351 226.024 66.7017 227.613L65.7537 227.295ZM71.4351 213.098C71.7967 212.324 72.1666 211.552 72.5449 210.78L73.4428 211.22C73.0673 211.986 72.7 212.753 72.3411 213.522L71.4351 213.098ZM72.5449 210.78C72.9271 210 73.3044 209.222 73.6769 208.444L74.5787 208.876C74.205 209.657 73.8263 210.438 73.4428 211.22L72.5449 210.78ZM77.9185 199.162C78.61 197.572 79.2812 195.987 79.9321 194.407L80.8567 194.788C80.2033 196.374 79.5297 197.965 78.8355 199.561L77.9185 199.162ZM83.6414 184.878C84.2318 183.266 84.8011 181.661 85.3497 180.063L86.2955 180.387C85.7448 181.992 85.1731 183.604 84.5803 185.222L83.6414 184.878ZM88.4653 170.31C88.9506 168.668 89.4138 167.035 89.8553 165.409L90.8203 165.671C90.3769 167.304 89.9116 168.945 89.4242 170.593L88.4653 170.31ZM92.3057 155.485C92.6806 153.797 93.0319 152.118 93.36 150.448L94.3412 150.641C94.0115 152.319 93.6586 154.006 93.2819 155.702L92.3057 155.485ZM95.0794 140.368C95.3235 138.677 95.5435 136.996 95.7397 135.327L96.7329 135.444C96.5356 137.122 96.3145 138.811 96.0692 140.511L95.0794 140.368ZM96.6562 125.137C96.7627 123.415 96.8436 121.707 96.8993 120.012L97.8987 120.045C97.8427 121.749 97.7614 123.467 97.6542 125.199L96.6562 125.137ZM96.9305 109.796C96.8834 108.077 96.8098 106.373 96.7104 104.686L97.7086 104.627C97.8087 106.325 97.8828 108.039 97.9301 109.769L96.9305 109.796ZM95.7757 94.5057C95.5625 92.808 95.3222 91.1293 95.0556 89.47L96.0429 89.3114C96.3114 90.982 96.5533 92.6721 96.7679 94.3811L95.7757 94.5057ZM93.07 79.4319C92.6762 77.7655 92.2547 76.1219 91.8062 74.5017L92.7699 74.2349C93.2218 75.8674 93.6465 77.5233 94.0432 79.2019L93.07 79.4319ZM88.6888 64.7634C88.1 63.1529 87.483 61.5698 86.8387 60.0149L87.7625 59.6321C88.4122 61.2001 89.0344 62.7964 89.6281 64.4201L88.6888 64.7634ZM82.5136 50.7587C81.7193 49.2424 80.8969 47.7591 80.0477 46.3095L80.9106 45.804C81.7678 47.2673 82.5978 48.7645 83.3994 50.2946L82.5136 50.7587ZM74.4491 37.7603C73.4385 36.3775 72.4007 35.0342 71.3371 33.7314L72.1117 33.099C73.1868 34.4158 74.2355 35.7732 75.2564 37.1703L74.4491 37.7603ZM64.4522 26.2094C63.2237 25.0147 61.9695 23.8671 60.6915 22.7679L61.3436 22.0097C62.6373 23.1224 63.9065 24.2838 65.1494 25.4925L64.4522 26.2094ZM52.5706 16.6427C51.1414 15.7058 49.6899 14.8239 48.2178 13.9982L48.707 13.1261C50.1995 13.9631 51.6707 14.857 53.1188 15.8064L52.5706 16.6427ZM39.0063 9.67187C37.418 9.06419 35.8121 8.51831 34.1905 8.03554L34.4758 7.07711C36.1219 7.56719 37.7519 8.12125 39.3636 8.73789L39.0063 9.67187ZM24.2523 5.90187C22.5749 5.67762 20.8856 5.51921 19.1866 5.42797L19.2403 4.42941C20.9657 4.52207 22.6813 4.68295 24.3849 4.91068L24.2523 5.90187ZM9.03293 5.68263C8.18799 5.77009 7.34161 5.87421 6.49408 5.99516L6.35281 5.00519C7.21307 4.88243 8.0722 4.77673 8.92996 4.68794L9.03293 5.68263Z" fill="#AAAAAA"/>
<path d="M7.16221 0.999955L1.14603 5.92921L8.34714 9.92269" stroke="#AAAAAA"/>
</svg>
